:SAMPLES-PER-SECOND 30
:FULLY-SPECIFIED
:DEGREES
104
root  34.99653433 36.49554515 -14.72434547 11.76634121 11.70052242 4.588185787
lowerback  -8.543669701 2.901530027 3.293929577
upperback  -4.58163023 3.239470005 -4.577270031
thorax  0.4794209898 1.343170047 -6.335879803
lowerneck  -15.16059971 -4.344069958 -1.516160011
upperneck  11.41349983 -6.738490582 6.863460064
head  6.247710228 -2.860690117 1.760419965
lclavicle  0 -4.497500157e-015 -2.743230041e-014
lhumerus  -43.0284996 27.66239929 68.13079834
lradius  -0.09675078094 -6.507048965e-006 25.89710045
lwrist  4.824992743e-007 -3.790274832e-007 -34.61119843
lhand  -3.52084579e-031 -36.90259933 -10.62209988
lfingers  90 7.125020027 -90
lthumb  94.80606079 -25.45889473 101.067009
rclavicle  0 -4.497500157e-015 -2.743230041e-014
rhumerus  55.45399475 -7.755159378 -52.98820114
rradius  -5.16745672e-007 2.214343908e-008 56.07049942
rwrist  1.380293725e-006 2.528095422e-007 -166.6269989
rhand  -3.125127546e-031 4.046840191 -6.070370197
rfingers  -90 -7.125020027 -90
rthumb  -84.41458893 -9.776463509 -60.06154251
rfemur  -14.28118038 10.9506197 14.41422844
rtibia  -2.926314116 2.223577261 23.82785225
rfoot  -2.560997486 -14.34188366 -44.71392822
rtoes  4.200275898 19.57700157 -102.3655624
lfemur  -12.32664108 -22.28169441 -18.75098419
ltibia  3.455648661 2.473623991 14.74177361
lfoot  0.6863350272 -29.87135506 29.19192505
ltoes  -8.449040413 -18.19430923 -115.4417801
105
root  34.99502648 36.49424455 -14.72626483 11.80568123 11.87252331 4.644918442
lowerback  -8.550390244 2.93404007 3.357610226
upperback  -4.578249931 3.279489994 -4.604990005
thorax  0.4968410134 1.363059998 -6.397469997
lowerneck  -15.13939953 -4.429810047 -1.535889983
upperneck  11.3781004 -6.852200031 6.887159824
head  6.239439964 -2.916539907 1.759809971
lclavicle  0 -4.497500157e-015 -2.743230041e-014
lhumerus  -42.96519852 27.6201992 68.1292038
lradius  -0.09675078094 -6.507048965e-006 25.85470009
lwrist  4.824992743e-007 -3.790274832e-007 -34.5469017
lhand  -3.533720219e-031 -36.6908989 -10.49639988
lfingers  90 7.125020027 -90
lthumb  94.68093872 -25.34284973 100.8294678
rclavicle  0 -4.497500157e-015 -2.743230041e-014
rhumerus  56.16529846 -8.024740219 -53.36709976
rradius  -5.16745672e-007 2.214343908e-008 54.9822998
rwrist  1.380293725e-006 2.528095422e-007 -166.2920074
rhand  -3.108010235e-031 3.882790089 -6.325839996
rfingers  -90 -7.125020027 -90
rthumb  -84.58394623 -9.54610157 -60.24363327
rfemur  -14.31644821 10.8633337 14.41194534
rtibia  -2.982756376 2.2173841 23.90199661
rfoot  -2.612978458 -14.27962875 -44.79958725
rtoes  4.170628071 19.57800674 -102.2770691
lfemur  -12.37710762 -22.41955185 -18.76658249
ltibia  3.472058058 2.46866703 14.73952007
lfoot  0.695718348 -29.84845924 29.14753723
ltoes  -8.445724487 -18.19580841 -115.43116
106
root  34.99380097 36.49285985 -14.72718397 11.82143211 12.02656841 4.68273592
lowerback  -8.56552124 2.964999914 3.376990557
upperback  -4.588500023 3.318049908 -4.631030083
thorax  0.502219975 1.381279945 -6.43200016
lowerneck  -15.06519985 -4.522329807 -1.565250039
upperneck  11.2979002 -6.972579479 6.927000046
head  6.209310055 -2.977339983 1.766469955
lclavicle  0 -4.497500157e-015 -2.743230041e-014
lhumerus  -42.95230103 27.64870071 68.07479858
lradius  -0.09675078094 -6.507048965e-006 25.8166008
lwrist  4.824992743e-007 -3.790274832e-007 -34.55789948
lhand  -3.530740041e-031 -36.67699814 -10.53429985
lfingers  90 7.125020027 -90
lthumb  94.68231201 -25.38048553 100.8179474
rclavicle  0 -4.497500157e-015 -2.743230041e-014
rhumerus  56.63819504 -8.175199509 -53.02420044
rradius  -5.16745672e-007 2.214343908e-008 54.15119934
rwrist  1.380293725e-006 2.528095422e-007 -166.2969971
rhand  -3.109865207e-031 4.267010212 -6.295259953
rfingers  -90 -7.125020027 -90
rthumb  -84.47419739 -9.593621254 -59.86533737
rfemur  -14.32876492 10.80397987 14.42652798
rtibia  -3.028484821 2.211547613 23.95791435
rfoot  -2.645077944 -14.237957 -44.86313248
rtoes  4.166442394 19.57907486 -102.2645721
lfemur  -12.43217659 -22.58089828 -18.75762558
ltibia  3.466214895 2.471407175 14.77847672
lfoot  0.7243234515 -29.8710537 29.16809654
ltoes  -8.424160957 -18.20553398 -115.3621216
107
root  34.99332037 36.49188665 -14.72764804 11.82790375 12.18843746 4.724905491
lowerback  -8.56857872 3.001339912 3.420179605
upperback  -4.605060101 3.361629963 -4.670189857
thorax  0.4961932003 1.400889993 -6.494249821
lowerneck  -15.0635004 -4.599919796 -1.503909945
upperneck  11.30729961 -7.079550266 6.855569839
head  6.211699963 -3.031740189 1.722910047
lclavicle  0 -4.497500157e-015 -2.743230041e-014
lhumerus  -42.98089981 27.77389908 67.93009949
lradius  -0.09675078094 -6.507048965e-006 25.79129982
lwrist  4.824992743e-007 -3.790274832e-007 -34.67670059
lhand  -3.525756455e-031 -36.73279953 -10.58670044
lfingers  90 7.125020027 -90
lthumb  94.71923828 -25.42999268 100.8822556
rclavicle  0 -4.497500157e-015 -2.743230041e-014
rhumerus  57.40110397 -8.344181061 -53.47359848
rradius  -5.16745672e-007 2.214343908e-008 53.0544014
rwrist  1.380293725e-006 2.528095422e-007 -165.371994
rhand  -3.105763227e-031 4.422589779 -6.354859829
rfingers  -90 -7.125020027 -90
rthumb  -84.46611023 -9.55079174 -59.71824265
rfemur  -14.30955315 10.72685337 14.43212318
rtibia  -3.063919544 2.201429605 23.99134254
rfoot  -2.679797173 -14.20669937 -44.94392395
rtoes  4.173394203 19.58019066 -102.2853241
lfemur  -12.44110584 -22.70170212 -18.77924156
ltibia  3.476615667 2.458480835 14.78155899
lfoot  0.7207649946 -29.84965134 29.10419846
ltoes  -8.468183517 -18.18564606 -115.5031052
108
root  34.992206 36.49104862 -14.72792738 11.854702 12.35388088 4.76084137
lowerback  -8.550449371 3.043199778 3.458039284
upperback  -4.612909794 3.41527009 -4.702690125
thorax  0.4903149903 1.42663002 -6.545899868
lowerneck  -15.07689953 -4.705760002 -1.540809989
upperneck  11.33100033 -7.217720032 6.860879898
head  6.228960037 -3.09904027 1.715639949
lclavicle  0 -4.497500157e-015 -2.743230041e-014
lhumerus  -43.00260162 27.89279938 67.8164978
lradius  -0.09675078094 -6.507048965e-006 25.7750988
lwrist  4.824992743e-007 -3.790274832e-007 -34.8512001
lhand  -3.526466653e-031 -36.7201004 -10.57989979
lfingers  90 7.125020027 -90
lthumb  94.71190643 -25.42382812 100.8680801
rclavicle  0 -4.497500157e-015 -2.743230041e-014
rhumerus  58.41460037 -8.697990417 -54.91590118
rradius  -5.16745672e-007 2.214343908e-008 51.67890167
rwrist  1.380293725e-006 2.528095422e-007 -163.9140015
rhand  -3.124313299e-031 4.137340069 -6.081769943
rfingers  -90 -7.125020027 -90
rthumb  -84.39779663 -9.771421432 -59.97394943
rfemur  -14.32387733 10.67430973 14.44467831
rtibia  -3.100984573 2.207751751 24.04222107
rfoot  -2.717289925 -14.15459061 -45.02877808
rtoes  4.186020851 19.58133888 -102.3230057
lfemur  -12.44736004 -22.80174828 -18.79171944
ltibia  3.500433683 2.468046904 14.74877357
lfoot  0.7191684246 -29.84824753 29.0591526
ltoes  -8.486862183 -18.1771698 -115.5629654
